<svg width="50" height="50" viewBox="0 0 50 50" fill="none" xmlns="http://www.w3.org/2000/svg">
<g id="Frame" clip-path="url(#clip0_3826_28615)">
<g id="Group">
<path id="Vector" d="M27.6914 32.8754C29.9079 30.6587 32.8586 29.4379 35.9999 29.4379C37.2863 29.4379 38.5406 29.6429 39.7256 30.037C42.9761 29.6513 45.5059 26.8801 45.5059 23.5275C45.5059 19.9119 42.5644 16.9704 38.9488 16.9704H5.95909C5.15005 16.9704 4.49414 17.6263 4.49414 18.4354V34.4504C4.49414 41.4044 10.1517 47.062 17.1057 47.062H24.8532C25.1733 47.062 25.4905 47.0498 25.8047 47.0262C23.2345 42.5383 23.8629 36.7037 27.6914 32.8754ZM37.4648 19.9002H38.9488C40.9489 19.9002 42.576 21.5274 42.576 23.5274C42.576 25.5275 40.9489 27.1546 38.9488 27.1546H37.4648V19.9002ZM11.7154 10.8392C12.1999 12.3911 13.4986 12.9508 13.6451 13.0095C13.8182 13.0792 14.003 13.115 14.1896 13.1151C14.7706 13.1151 15.3206 12.7671 15.5499 12.1947C15.8509 11.4438 15.4861 10.591 14.7351 10.29C14.7337 10.2894 14.5764 10.1718 14.5121 9.96602C14.4504 9.76855 14.333 8.99701 15.4119 7.36584C16.693 5.42899 17.1146 3.71656 16.6648 2.27603C16.1803 0.724163 14.8816 0.164456 14.7351 0.10576C13.9842 -0.195726 13.1313 0.169436 12.8303 0.920564C12.5293 1.6715 12.894 2.52429 13.6451 2.82529C13.6464 2.82587 13.8038 2.94346 13.868 3.14924C13.9298 3.34671 14.0472 4.11825 12.9683 5.74942C11.6871 7.68627 11.2656 9.3987 11.7154 10.8392ZM18.5048 10.8392C18.9893 12.3911 20.288 12.9508 20.4345 13.0095C20.6076 13.0792 20.7925 13.115 20.9791 13.1151C21.5601 13.1151 22.11 12.7671 22.3393 12.1947C22.6403 11.4438 22.2756 10.591 21.5245 10.29C21.5232 10.2894 21.3658 10.1718 21.3016 9.96602C21.2399 9.76855 21.1225 8.99701 22.2013 7.36584C23.4825 5.42899 23.904 3.71656 23.4543 2.27603C22.9698 0.724163 21.671 0.164456 21.5245 0.10576C20.7736 -0.195726 19.9207 0.169436 19.6197 0.920564C19.3187 1.6715 19.6835 2.52429 20.4345 2.82529C20.4359 2.82587 20.5932 2.94346 20.6575 3.14924C20.7192 3.34671 20.8366 4.11825 19.7577 5.74942C18.4766 7.68627 18.0551 9.3987 18.5048 10.8392ZM25.2942 10.8392C25.7787 12.3911 27.0775 12.9508 27.224 13.0095C27.3971 13.0792 27.5819 13.115 27.7685 13.1151C28.3495 13.1151 28.8995 12.7671 29.1288 12.1947C29.4298 11.4438 29.065 10.591 28.314 10.29C28.3126 10.2894 28.1553 10.1718 28.091 9.96602C28.0293 9.76855 27.9119 8.99701 28.9908 7.36584C30.2719 5.42899 30.6934 3.71656 30.2437 2.27603C29.7592 0.724163 28.4605 0.164456 28.314 0.10576C27.563 -0.195726 26.7102 0.169436 26.4092 0.920564C26.1082 1.6715 26.4729 2.52429 27.224 2.82529C27.2253 2.82587 27.3827 2.94346 27.4469 3.14924C27.5087 3.34671 27.626 4.11825 26.5472 5.74942C25.266 7.68627 24.8445 9.3987 25.2942 10.8392ZM30.8866 48.3689C32.4109 49.4549 34.2049 50 36 50C38.2586 50 40.5173 49.1402 42.2367 47.4207C45.3228 44.3347 45.6375 39.5131 43.1849 36.0706L30.8866 48.3689Z" fill="#F3F4F5"/>
<path id="Vector_2" d="M29.7626 34.947C26.6766 38.033 26.3619 42.8546 28.8144 46.2971L41.1128 33.9988C37.6702 31.5462 32.8487 31.8609 29.7626 34.947Z" fill="#F3F4F5"/>
</g>
</g>
<defs>
<clipPath id="clip0_3826_28615">
<rect width="50" height="50" fill="white"/>
</clipPath>
</defs>
</svg>
